<svg width="33" height="32" viewBox="0 0 33 32" fill="none" xmlns="http://www.w3.org/2000/svg">
<path d="M32.1883 0H0.737671V32H32.1883V0Z" fill="white"/>
<g clip-path="url(#clip0_190_1608)">
<path d="M16.1368 12.6816C14.0216 12.6816 12.3155 14.3849 12.3155 16.4967C12.3155 18.6084 14.0216 20.3117 16.1368 20.3117C18.2519 20.3117 19.958 18.6084 19.958 16.4967C19.958 14.3849 18.2519 12.6816 16.1368 12.6816ZM16.1368 18.9769C14.7699 18.9769 13.6525 17.8646 13.6525 16.4967C13.6525 15.1287 14.7666 14.0164 16.1368 14.0164C17.507 14.0164 18.6211 15.1287 18.6211 16.4967C18.6211 17.8646 17.5036 18.9769 16.1368 18.9769ZM21.0056 12.5256C21.0056 13.0203 20.6065 13.4154 20.1143 13.4154C19.6188 13.4154 19.223 13.017 19.223 12.5256C19.223 12.0342 19.6221 11.6357 20.1143 11.6357C20.6065 11.6357 21.0056 12.0342 21.0056 12.5256ZM23.5364 13.4287C23.4799 12.2367 23.2072 11.1808 22.3325 10.3109C21.4612 9.441 20.4036 9.16873 19.2097 9.10897C17.9792 9.03924 14.291 9.03924 13.0605 9.10897C11.8699 9.16541 10.8123 9.43768 9.93768 10.3076C9.06302 11.1775 8.79364 12.2334 8.73378 13.4254C8.66394 14.6539 8.66394 18.3361 8.73378 19.5646C8.79031 20.7566 9.06302 21.8125 9.93768 22.6824C10.8123 23.5523 11.8666 23.8246 13.0605 23.8844C14.291 23.9541 17.9792 23.9541 19.2097 23.8844C20.4036 23.8279 21.4612 23.5556 22.3325 22.6824C23.2039 21.8125 23.4766 20.7566 23.5364 19.5646C23.6063 18.3361 23.6063 14.6572 23.5364 13.4287ZM21.9468 20.8828C21.6874 21.5336 21.1852 22.0349 20.53 22.2972C19.5489 22.6857 17.2209 22.5961 16.1368 22.5961C15.0526 22.5961 12.7213 22.6824 11.7435 22.2972C11.0917 22.0383 10.5895 21.5369 10.3268 20.8828C9.93768 19.9033 10.0275 17.5791 10.0275 16.4967C10.0275 15.4142 9.941 13.0867 10.3268 12.1105C10.5862 11.4597 11.0884 10.9584 11.7435 10.6961C12.7246 10.3076 15.0526 10.3972 16.1368 10.3972C17.2209 10.3972 19.5523 10.3109 20.53 10.6961C21.1818 10.9551 21.684 11.4564 21.9468 12.1105C22.3359 13.09 22.2461 15.4142 22.2461 16.4967C22.2461 17.5791 22.3359 19.9066 21.9468 20.8828Z" fill="black"/>
</g>
<defs>
<clipPath id="clip0_190_1608">
<rect width="14.8991" height="17" fill="white" transform="translate(8.68396 8)"/>
</clipPath>
</defs>
</svg>
