<svg width="159" height="29" viewBox="0 0 159 29" fill="none" xmlns="http://www.w3.org/2000/svg">
<path d="M0 27V24.31H32V27H0ZM0 16.76V14.07H32V16.76H0ZM0 6.69V4H32V6.69H0Z" fill="#E8E8E8"/>
<path d="M79.5 19.937C84 19.937 87.656 15.464 87.656 9.968C87.656 4.472 84 0 79.5 0C78.3631 0.0217413 77.2463 0.303398 76.2351 0.823397C75.2239 1.34339 74.3451 2.08794 73.666 3C72.1266 4.99573 71.3082 7.45381 71.344 9.974C71.344 15.465 75 19.937 79.5 19.937ZM79.5 1.813C83 1.813 85.844 5.472 85.844 9.969C85.844 14.466 82.998 18.125 79.5 18.125C76.002 18.125 73.156 14.465 73.155 9.969C73.154 5.473 76 1.813 79.5 1.813ZM85.844 18.125C85.6036 18.125 85.373 18.2205 85.203 18.3905C85.033 18.5605 84.9375 18.7911 84.9375 19.0315C84.9375 19.2719 85.033 19.5025 85.203 19.6725C85.373 19.8425 85.6036 19.938 85.844 19.938C87.526 19.9399 89.1386 20.6088 90.3279 21.7982C91.5172 22.9875 92.1861 24.6 92.188 26.282C92.1875 26.5221 92.0918 26.7523 91.922 26.9221C91.7522 27.0918 91.5221 27.1875 91.282 27.188H67.72C67.4798 27.1875 67.2497 27.0918 67.08 26.9221C66.9102 26.7523 66.8145 26.5221 66.814 26.282C66.8161 24.6001 67.4852 22.9877 68.6744 21.7985C69.8637 20.6092 71.4761 19.9401 73.158 19.938C73.3982 19.938 73.6287 19.8425 73.7986 19.6726C73.9685 19.5027 74.064 19.2723 74.064 19.032C74.064 18.7917 73.9685 18.5613 73.7986 18.3914C73.6287 18.2215 73.3982 18.126 73.158 18.126C70.9954 18.1279 68.922 18.9875 67.3926 20.5164C65.8631 22.0453 65.0026 24.1185 65 26.281C65.0008 27.0019 65.2875 27.693 65.7972 28.2027C66.307 28.7125 66.9981 28.9992 67.719 29H91.282C92.0027 28.9989 92.6936 28.7121 93.2031 28.2024C93.7126 27.6927 93.9992 27.0017 94 26.281C93.9974 24.1187 93.1372 22.0457 91.6083 20.5168C90.0793 18.9878 88.0063 18.1276 85.844 18.125Z" fill="#E8E8E8"/>
<path d="M153.201 29C152.553 28.9738 151.942 28.6948 151.497 28.2227C151.053 27.7506 150.811 27.1232 150.824 26.475C150.838 25.8269 151.104 25.2097 151.567 24.7559C152.03 24.3022 152.653 24.048 153.301 24.048C153.949 24.048 154.572 24.3022 155.035 24.7559C155.498 25.2097 155.764 25.8269 155.777 26.475C155.791 27.1232 155.549 27.7506 155.105 28.2227C154.66 28.6948 154.049 28.9738 153.401 29H153.201ZM133.753 26.32C133.753 25.79 133.91 25.2718 134.205 24.8311C134.499 24.3904 134.918 24.0469 135.407 23.844C135.897 23.6412 136.436 23.5881 136.956 23.6915C137.476 23.7949 137.953 24.0502 138.328 24.425C138.703 24.7998 138.958 25.2773 139.062 25.7972C139.165 26.317 139.112 26.8559 138.909 27.3456C138.706 27.8353 138.363 28.2539 137.922 28.5483C137.481 28.8428 136.963 29 136.433 29C136.081 29.0003 135.732 28.9311 135.407 28.7966C135.081 28.662 134.786 28.4646 134.537 28.2158C134.288 27.9669 134.09 27.6713 133.955 27.3461C133.82 27.0208 133.751 26.6721 133.751 26.32H133.753ZM137.553 20.686C137.294 20.6868 137.041 20.6024 136.834 20.4457C136.627 20.2891 136.478 20.0689 136.408 19.819L131.575 2.36401H128.182C127.869 2.36401 127.568 2.23947 127.346 2.01781C127.125 1.79614 127 1.49549 127 1.18201C127 0.868519 127.125 0.567873 127.346 0.346205C127.568 0.124537 127.869 5.81268e-06 128.182 5.81268e-06H132.463C132.723 -0.00080736 132.975 0.0837201 133.182 0.240568C133.388 0.397416 133.538 0.617884 133.607 0.868006L138.44 18.323H151.618L156.001 8.27501H141.401C141.243 8.27961 141.085 8.25242 140.938 8.19507C140.79 8.13771 140.656 8.05134 140.542 7.94108C140.429 7.83082 140.339 7.69891 140.277 7.55315C140.215 7.40739 140.184 7.25075 140.184 7.0925C140.184 6.93426 140.215 6.77762 140.277 6.63186C140.339 6.4861 140.429 6.35419 140.542 6.24393C140.656 6.13367 140.79 6.0473 140.938 5.98994C141.085 5.93259 141.243 5.90541 141.401 5.91001H157.814C158.01 5.90996 158.202 5.95866 158.374 6.05172C158.547 6.14478 158.693 6.27926 158.8 6.44301C158.908 6.60729 158.973 6.79569 158.991 6.99145C159.008 7.18721 158.977 7.38424 158.9 7.565L153.495 19.977C153.403 20.1876 153.251 20.3668 153.058 20.4927C152.866 20.6186 152.641 20.6858 152.411 20.686H137.553Z" fill="#E8E8E8"/>
</svg>
